:version 1.10
:name ASF
:units
  mass 1
  length 1
  angle deg
:documentation
  ASF file generated by Kaydara
:root
  axis xyz
  order  tx ty tz rx ry rz
  position 0 0 0
  orientation 0 0 0
:bonedata
  begin
    id 1
    name RightUpLegDummy
    direction -0.718183 -0.695806 0.00816078
    length 4.904
    axis 0 0 0 xyz
  end
  begin
    id 2
    name RightUpLeg
    direction 3.53989e-006 -0.995788 0.0916897
    length 17.4976
    axis -3.49089 -0.000906621 0.000287158 xyz
    dof rx ry rz
  end
  begin
    id 3
    name RightLeg
    direction 0.00371093 -0.995096 -0.0988418
    length 16.5821
    axis 3.68512 0.0193738 -0.131023 xyz
    dof rx ry rz
  end
  begin
    id 4
    name RightFoot
    direction 0.000791514 -0.46099 0.887405
    length 3.77069
    axis 4.84075e-005 -0.120479 -0.188788 xyz
    dof rx ry rz
  end
  begin
    id 5
    name RightToes
    direction 0.00124746 -0.014064 0.9999
    length 3.85082
    axis 0.00048216 0.542163 -0.142577 xyz
    dof rx ry rz
  end
  begin
    id 6
    name SpineDummy
    direction 8.36599e-015 1 5.97571e-016
    length 4.6813
    axis 0 0 0 xyz
  end
  begin
    id 7
    name Spine
    direction -4.63632e-008 0.999988 0.00495137
    length 10.1015
    axis -0.00138897 0.000121419 3.25764e-006 xyz
    dof rx ry rz
  end
  begin
    id 8
    name Spine1
    direction 0 0 0
    length 0
    axis -0.00138896 0.000121452 2.39764e-006 xyz
    dof rx ry rz
  end
  begin
    id 9
    name HEadDummy
    direction -3.91456e-008 0.999999 0.00127422
    length 3.43865
    axis -0.00138896 0.000121452 2.39764e-006 xyz
  end
  begin
    id 10
    name HEad
    direction -0.0222688 0.980941 0.193023
    length 5.12695
    axis -0.00138895 0.000121452 2.39764e-006 xyz
    dof rx ry rz
  end
  begin
    id 11
    name LeftShoulder1Dummy
    direction 0.998891 -0.0402508 -0.0244456
    length 3.5433
    axis -0.00138896 0.000121452 2.39764e-006 xyz
  end
  begin
    id 12
    name LeftShoulder1
    direction 0.99951 -0.000327743 0.0313091
    length 4.05031
    axis -0.00138896 0.000121452 2.39764e-006 xyz
    dof rx ry rz
  end
  begin
    id 13
    name LeftArm
    direction 0.998561 -0.00100054 -0.0536182
    length 10.3537
    axis -23.1894 0.134784 0.96751 xyz
    dof rx ry rz
  end
  begin
    id 14
    name LeftForeArm
    direction 0.998903 0.00866434 0.046012
    length 8.70632
    axis -9.91835 -0.06569 -0.177792 xyz
    dof rx ry rz
  end
  begin
    id 15
    name LeftHand
    direction 0.992938 -0.0411636 0.11126
    length 5.32135
    axis -0.00960227 -0.00340091 0.185174 xyz
    dof rx ry rz
  end
  begin
    id 16
    name RightShoulderDummy
    direction -0.998891 -0.0402509 -0.0244414
    length 3.5433
    axis -0.00138896 0.000121452 2.39764e-006 xyz
  end
  begin
    id 17
    name RightShoulder
    direction -0.99951 -0.000327827 0.0313133
    length 4.05031
    axis 0.215806 0.000203644 -0.00680151 xyz
    dof rx ry rz
  end
  begin
    id 18
    name RightArm
    direction -0.998573 -0.000999583 -0.053403
    length 10.3947
    axis -23.2009 -0.134239 -0.9641 xyz
    dof rx ry rz
  end
  begin
    id 19
    name RightForeArm
    direction -0.998898 0.00868026 0.0461306
    length 8.68355
    axis -9.92322 0.0658061 0.178869 xyz
    dof rx ry rz
  end
  begin
    id 20
    name RightHand
    direction -0.992843 -0.0414603 0.112003
    length 5.28593
    axis -0.00960634 0.00330671 -0.185226 xyz
    dof rx ry rz
  end
  begin
    id 21
    name LeftUpLegDummy
    direction 0.718183 -0.695806 0.00816078
    length 4.904
    axis 0 0 0 xyz
  end
  begin
    id 22
    name LeftUpLeg
    direction -6.8115e-006 -0.995793 0.0916336
    length 17.4976
    axis -3.48766 0.00143441 -0.000523914 xyz
    dof rx ry rz
  end
  begin
    id 23
    name LeftLeg
    direction -0.00601357 -0.995091 -0.0987824
    length 16.5821
    axis 3.68177 -0.00654038 -0.00028478 xyz
    dof rx ry rz
  end
  begin
    id 24
    name LeftFoot
    direction -0.00417578 -0.460984 0.887399
    length 3.77069
    axis 1.87232e-006 4.66002e-005 -8.1837e-006 xyz
    dof rx ry rz
  end
  begin
    id 25
    name LeftToes
    direction 0.00818058 -0.00485161 0.999955
    length 3.85048
    axis 1.06246e-005 4.65855e-005 -8.18502e-006 xyz
    dof rx ry rz
  end
:hierarchy
  begin
    root RightUpLegDummy SpineDummy LeftUpLegDummy
    RightUpLegDummy RightUpLeg
    RightUpLeg RightLeg
    RightLeg RightFoot
    RightFoot RightToes
    SpineDummy Spine
    Spine Spine1
    Spine1 HEadDummy LeftShoulder1Dummy RightShoulderDummy
    HEadDummy HEad
    LeftShoulder1Dummy LeftShoulder1
    LeftShoulder1 LeftArm
    LeftArm LeftForeArm
    LeftForeArm LeftHand
    RightShoulderDummy RightShoulder
    RightShoulder RightArm
    RightArm RightForeArm
    RightForeArm RightHand
    LeftUpLegDummy LeftUpLeg
    LeftUpLeg LeftLeg
    LeftLeg LeftFoot
    LeftFoot LeftToes
  end

:SAMPLES-PER-SECOND 24
:FULLY-SPECIFIED
:DEGREES
20
root  8.08544 39.214 17.7222 8.16113 32.0565 -2.64636
RightUpLeg  -20.2298 3.19533 -2.73547
RightLeg  21.8463 -5.5566 -2.66148
RightFoot  -8.37317 -0.0378136 -0.732349
RightToes  -2.08645e-008 3.77894e-005 6.81332e-007
Spine  1.21242 -3.31847 -3.18933
Spine1  3.57341 -5.25115 8.97245
HEad  -33.214 -3.17121 5.10289
LeftShoulder1  7.71714 -13.6058 -38.9539
LeftArm  -0.0838529 11.2249 -27.0872
LeftForeArm  140.976 -78.2936 -126.81
LeftHand  -0.662288 -0.778433 12.5818
RightShoulder  3.90567 6.6391 32.6215
RightArm  13.1949 -16.7296 36.977
RightForeArm  73.6404 79.0033 58.4675
RightHand  -0.558746 8.22086 -5.12901
LeftUpLeg  -3.07134 0.787809 11.9451
LeftLeg  15.0482 17.2709 6.5354
LeftFoot  -8.28288 0.416044 -13.749
LeftToes  1.24767e-006 1.47042e-008 1.32732e-009
21
root  7.76492 39.4481 18.0465 8.23401 32.1329 -2.44366
RightUpLeg  -18.7148 3.48175 -2.17996
RightLeg  19.282 -5.89159 -2.48405
RightFoot  -7.49431 -0.0048575 -1.36533
RightToes  -2.08645e-008 3.77894e-005 6.81332e-007
Spine  1.87328 -3.30602 -2.38404
Spine1  3.88839 -5.21858 8.57502
HEad  -33.9395 -3.46677 4.97257
LeftShoulder1  7.78214 -13.6941 -39.0933
LeftArm  1.94759 13.8142 -27.724
LeftForeArm  140.582 -78.5564 -125.368
LeftHand  -0.622212 -1.12248 11.2309
RightShoulder  3.8554 6.58913 32.3133
RightArm  12.4984 -16.3284 36.9078
RightForeArm  69.9187 78.5768 55.2856
RightHand  -0.516305 8.12555 -4.7981
LeftUpLeg  -5.35131 3.94388 10.7389
LeftLeg  20.0039 21.6862 8.86772
LeftFoot  -8.37088 0.329676 -10.6713
LeftToes  1.24767e-006 1.47042e-008 1.32732e-009
22
root  7.56271 39.6668 18.3028 8.23132 31.6206 -2.31494
RightUpLeg  -17.1658 3.74181 -1.69157
RightLeg  16.5431 -5.69974 -2.2824
RightFoot  -6.43479 0.0402918 -1.95677
RightToes  -2.08645e-008 3.77894e-005 6.81332e-007
Spine  1.68249 -2.84305 -1.07503
Spine1  4.88723 -4.61044 7.47688
HEad  -33.9077 -4.20429 4.39688
LeftShoulder1  7.76314 -13.6893 -38.9998
LeftArm  3.50478 16.4712 -28.5294
LeftForeArm  141.337 -78.7203 -124.725
LeftHand  -0.556609 -2.06271 8.86525
RightShoulder  3.81331 6.54688 32.054
RightArm  11.3894 -15.9198 36.3915
RightForeArm  67.4106 78.2031 52.6234
RightHand  -0.552574 8.12713 -5.10813
LeftUpLeg  -7.48274 9.98152 8.42407
LeftLeg  24.029 19.5421 9.58114
LeftFoot  -10.3376 0.154758 -10.5985
LeftToes  1.24767e-006 1.47042e-008 1.32732e-009
23
root  7.44962 39.8507 18.5324 8.32507 30.8522 -2.34882
RightUpLeg  -15.8057 3.37736 -1.0462
RightLeg  13.7887 -4.52715 -2.13295
RightFoot  -5.28352 0.0803327 -2.19467
RightToes  -2.08645e-008 3.77894e-005 6.81332e-007
Spine  0.953444 -2.24002 0.180204
Spine1  5.75423 -3.86113 6.53451
HEad  -32.8761 -4.84524 3.61952
LeftShoulder1  7.77319 -13.6822 -39.0737
LeftArm  5.21395 20.1727 -28.6163
LeftForeArm  144.824 -78.4904 -126.896
LeftHand  -0.496471 -2.65356 7.38326
RightShoulder  3.80001 6.53414 31.9692
RightArm  10.5937 -15.9191 35.6099
RightForeArm  65.7828 77.9746 51.2856
RightHand  -0.584169 7.9712 -5.43381
LeftUpLeg  -9.38852 15.4857 5.7325
LeftLeg  25.7275 15.2094 8.17677
LeftFoot  -12.1003 -0.00518605 -11.7392
LeftToes  1.24767e-006 1.47042e-008 1.32732e-009
24
root  7.41015 40.0084 18.7279 8.19116 30.6972 -2.61774
RightUpLeg  -14.2081 1.89242 -0.339164
RightLeg  10.9986 -2.5352 -1.79045
RightFoot  -4.26266 0.11859 -2.38129
RightToes  -2.08645e-008 3.77894e-005 6.81332e-007
Spine  0.14988 -2.01012 1.07918
Spine1  6.52264 -3.62489 6.18513
HEad  -31.6603 -5.25507 3.00591
LeftShoulder1  7.81181 -13.6995 -39.2445
LeftArm  6.59245 24.8673 -28.0352
LeftForeArm  149.806 -77.7924 -131.37
LeftHand  -0.469142 -2.69755 6.95797
RightShoulder  3.81192 6.53002 32.1042
RightArm  10.2134 -16.1152 34.7829
RightForeArm  65.5645 77.9857 51.5131
RightHand  -0.609785 7.75989 -5.73765
LeftUpLeg  -10.9419 19.6269 3.18026
LeftLeg  25.6314 13.9728 7.52721
LeftFoot  -13.1114 -0.106408 -11.9394
LeftToes  1.24767e-006 1.47042e-008 1.32732e-009
25
root  7.40422 40.1127 18.8854 7.78015 30.8804 -3.08099
RightUpLeg  -12.6516 0.625588 0.196046
RightLeg  8.68551 -1.17841 -1.27337
RightFoot  -3.42913 0.14965 -2.49864
RightToes  -2.08645e-008 3.77894e-005 6.81332e-007
Spine  -0.78594 -1.95343 1.26357
Spine1  7.52386 -3.71823 6.41642
HEad  -30.6151 -5.72974 2.65459
LeftShoulder1  7.73923 -13.6352 -39.0032
LeftArm  7.13505 29.3936 -27.588
LeftForeArm  152.999 -77.088 -134.857
LeftHand  -0.475718 -2.71644 7.03701
RightShoulder  3.82637 6.51812 32.2946
RightArm  9.53947 -16.7333 34.2691
RightForeArm  67.7696 78.3297 53.778
RightHand  -0.644391 7.5366 -6.1346
LeftUpLeg  -11.9054 23.4882 1.1223
LeftLeg  24.1886 15.688 7.88691
LeftFoot  -14.3122 -0.213042 -11.4892
LeftToes  1.24767e-006 1.47042e-008 1.32732e-009
26
root  7.36714 40.1278 18.9996 7.15283 31.0186 -3.72131
RightUpLeg  -11.7553 0.228485 0.799296
RightLeg  7.79595 -0.948157 -0.84334
RightFoot  -3.07609 0.161264 -2.51887
RightToes  -2.08645e-008 3.77894e-005 6.81332e-007
Spine  -1.7655 -1.7777 0.288996
Spine1  8.63873 -3.93471 7.75769
HEad  -29.1914 -6.16103 2.53113
LeftShoulder1  7.61545 -13.5284 -38.5794
LeftArm  7.31716 32.6753 -27.0533
LeftForeArm  154.798 -76.5627 -137.053
LeftHand  -0.498275 -2.63164 7.43203
RightShoulder  3.83048 6.50279 32.3949
RightArm  8.65233 -17.8289 34.3191
RightForeArm  70.2868 78.6759 56.3106
RightHand  -0.565847 7.71839 -5.36569
LeftUpLeg  -12.35 26.9179 -0.0362112
LeftLeg  21.4548 17.1761 7.60909
LeftFoot  -14.9855 -0.265092 -11.1179
LeftToes  1.24767e-006 1.47042e-008 1.32732e-009
27
root  7.33804 40.0643 19.0624 5.65906 31.8188 -4.84003
RightUpLeg  -10.9452 0.0139375 1.69346
RightLeg  8.44477 -1.62571 -0.432102
RightFoot  -3.5226 0.160624 -2.69954
RightToes  -2.08645e-008 3.77894e-005 6.81332e-007
Spine  -2.2458 -1.91036 -0.968971
Spine1  9.67038 -4.58902 9.56695
HEad  -27.0222 -6.29887 2.67094
LeftShoulder1  7.49189 -13.4198 -38.1542
LeftArm  7.28692 34.3004 -26.2814
LeftForeArm  155.966 -76.1617 -138.563
LeftHand  -0.508407 -2.43654 7.75357
RightShoulder  3.85497 6.50922 32.6155
RightArm  8.11076 -18.8803 34.5165
RightForeArm  71.2564 78.8031 57.355
RightHand  -0.804759 7.62899 -7.52186
LeftUpLeg  -12.0102 27.1038 0.472001
LeftLeg  18.6932 19.2659 7.19296
LeftFoot  -13.3581 -0.0952272 -9.73099
LeftToes  1.24767e-006 1.47042e-008 1.32732e-009
28
root  7.36302 39.9398 19.0637 3.32581 33.2199 -6.15509
RightUpLeg  -9.93114 -0.63955 2.55158
RightLeg  10.2709 -2.35675 -0.14057
RightFoot  -4.59388 0.101702 -2.24262
RightToes  -2.08645e-008 3.77894e-005 6.81332e-007
Spine  -2.09432 -2.42322 -2.22488
Spine1  10.6041 -5.52724 10.7909
HEad  -24.5962 -6.34603 3.0167
LeftShoulder1  7.33984 -13.2734 -37.6541
LeftArm  6.77958 33.9402 -25.6858
LeftForeArm  155.441 -76.0722 -138.728
LeftHand  -0.539349 -2.4099 8.23631
RightShoulder  3.94331 6.58067 33.2181
RightArm  7.79308 -19.717 34.1739
RightForeArm  73.7441 79.0804 59.6955
RightHand  -0.882795 7.4717 -8.30349
LeftUpLeg  -10.9807 23.6803 2.21453
LeftLeg  18.0984 23.023 7.68932
LeftFoot  -10.7141 0.101335 -7.09363
LeftToes  1.24767e-006 1.47042e-008 1.32732e-009
29
root  7.36152 39.7784 18.9818 1.82837 33.8542 -6.44263
RightUpLeg  -10.6862 -2.25695 2.81377
RightLeg  14.5745 -1.224 -0.348491
RightFoot  -6.02847 0.0181009 -1.25945
RightToes  -2.08645e-008 3.77894e-005 6.81332e-007
Spine  -2.03227 -2.57225 -4.90976
Spine1  11.4699 -6.03786 11.9296
HEad  -22.7095 -6.56009 3.52588
LeftShoulder1  7.30744 -13.2015 -37.6499
LeftArm  5.91453 31.2354 -25.0616
LeftForeArm  153.167 -76.4315 -137.133
LeftHand  -0.602935 -2.25767 9.35413
RightShoulder  4.06053 6.69274 33.9344
RightArm  7.2958 -20.2185 33.6302
RightForeArm  77.0052 79.4026 62.7935
RightHand  -0.702205 7.59621 -6.61916
LeftUpLeg  -10.2216 22.0552 2.80722
LeftLeg  19.105 24.3044 8.56099
LeftFoot  -10.2185 0.118524 -5.7518
LeftToes  1.24767e-006 1.47042e-008 1.32732e-009
30
root  7.33621 39.645 18.7951 1.41345 33.95 -5.6322
RightUpLeg  -14.1515 -4.15403 1.85009
RightLeg  22.5101 0.904491 0.197515
RightFoot  -6.86145 -0.0193776 -0.693456
RightToes  -2.08645e-008 3.77894e-005 6.81332e-007
Spine  -1.92686 -2.37539 -8.27399
Spine1  12.0814 -6.06579 12.8583
HEad  -21.512 -6.87535 4.19291
LeftShoulder1  7.48059 -13.311 -38.3659
LeftArm  4.81302 26.5471 -24.2301
LeftForeArm  149.909 -77.1233 -134.024
LeftHand  -0.637362 -1.85767 10.3916
RightShoulder  4.13098 6.76381 34.3416
RightArm  6.76846 -20.2998 33.8245
RightForeArm  75.8634 79.2846 61.4716
RightHand  -0.806356 7.89111 -7.39483
LeftUpLeg  -9.41949 21.0328 2.33938
LeftLeg  19.5647 24.7854 8.60782
LeftFoot  -11.3144 0.0691007 -6.0037
LeftToes  1.24767e-006 1.47042e-008 1.32732e-009
31
root  7.40518 39.5945 18.5316 0.548218 35.4686 -4.89551
RightUpLeg  -18.2805 -8.91517 0.0747304
RightLeg  32.2069 4.58507 2.89156
RightFoot  -5.15853 -0.178702 2.46536
RightToes  -2.08645e-008 3.77894e-005 6.81332e-007
Spine  -0.871033 -2.5952 -10.1819
Spine1  12.2542 -6.28786 12.6588
HEad  -20.6429 -7.50532 4.7174
LeftShoulder1  7.71232 -13.5007 -39.194
LeftArm  3.78739 20.5568 -23.6463
LeftForeArm  144.979 -77.9912 -129.289
LeftHand  -0.648797 -1.76639 10.7022
RightShoulder  4.15375 6.78209 34.4898
RightArm  6.32117 -20.627 34.5615
RightForeArm  73.5771 79.0364 59.0535
RightHand  -0.690266 7.90363 -6.38164
LeftUpLeg  -8.04311 18.1612 1.78408
LeftLeg  19.0456 26.078 8.24992
LeftFoot  -11.5764 0.0575117 -5.58677
LeftToes  1.24767e-006 1.47042e-008 1.32732e-009
32
root  7.56121 39.5744 18.2745 -0.998901 38.8039 -4.72833
RightUpLeg  -21.2953 -15.5449 -2.04826
RightLeg  40.594 7.24538 6.33493
RightFoot  -1.45448 -0.899934 10.0835
RightToes  -2.08645e-008 3.77894e-005 6.81332e-007
Spine  0.591747 -3.13782 -10.7734
Spine1  12.271 -6.83497 12.1034
HEad  -19.7969 -8.99908 4.77187
LeftShoulder1  7.94411 -13.704 -39.9638
LeftArm  3.51364 13.7417 -23.641
LeftForeArm  138.871 -78.8 -123.55
LeftHand  -0.660314 -1.95088 10.6283
RightShoulder  4.15326 6.77529 34.5117
RightArm  5.7953 -21.7036 34.9607
RightForeArm  75.7319 79.2718 61.3907
RightHand  -0.655762 7.88828 -6.08418
LeftUpLeg  -6.54657 15.4285 1.34766
LeftLeg  18.4731 25.6739 7.85082
LeftFoot  -11.5929 0.0595518 -4.62744
LeftToes  1.24767e-006 1.47042e-008 1.32732e-009
33
root  7.72635 39.5598 18.0924 -2.46252 42.2624 -5.11206
RightUpLeg  -23.0235 -20.6116 -3.55653
RightLeg  45.0637 6.35888 6.46266
RightFoot  0.434281 -1.52013 14.7391
RightToes  -2.08645e-008 3.77894e-005 6.81332e-007
Spine  1.258 -3.29417 -10.6477
Spine1  12.3796 -6.98666 11.8054
HEad  -18.7821 -10.1892 4.1783
LeftShoulder1  8.15006 -13.883 -40.6335
LeftArm  3.97952 7.29052 -24.5557
LeftForeArm  135.496 -79.281 -119.607
LeftHand  -0.650862 -1.87731 10.5797
RightShoulder  4.14701 6.76609 34.4871
RightArm  5.60075 -23.1615 34.6734
RightForeArm  80.2307 79.684 66.2028
RightHand  -0.643458 7.75091 -6.03639
LeftUpLeg  -5.46421 14.1289 1.25983
LeftLeg  17.987 23.4127 7.19304
LeftFoot  -12.297 0.0364937 -4.43665
LeftToes  1.24767e-006 1.47042e-008 1.32732e-009
34
root  7.91178 39.5911 17.9871 -3.77991 44.7177 -6.14307
RightUpLeg  -23.8736 -22.551 -3.89944
RightLeg  44.8888 2.64613 2.51418
RightFoot  -0.338807 -1.1342 11.7143
RightToes  -2.08645e-008 3.77894e-005 6.81332e-007
Spine  1.20709 -3.0667 -9.37758
Spine1  12.3458 -6.52207 11.1208
HEad  -17.7605 -7.53353 2.31368
LeftShoulder1  8.15534 -13.8879 -40.6502
LeftArm  4.39614 3.07657 -26.7078
LeftForeArm  137.547 -79.2455 -120.512
LeftHand  -0.643136 -1.68407 10.7279
RightShoulder  4.1739 6.79755 34.6232
RightArm  6.48043 -23.9743 33.7554
RightForeArm  80.7014 79.725 66.8296
RightHand  -0.669132 7.65619 -6.3031
LeftUpLeg  -4.80589 12.8452 1.59236
LeftLeg  17.4244 22.158 6.76073
LeftFoot  -12.6837 0.0247117 -4.37091
LeftToes  1.24767e-006 1.47042e-008 1.32732e-009
